<mxfile host="drawio-plugin" modified="2023-09-29T23:48:54.368Z" agent="5.0 (Windows NT 10.0; Win64; x64) AppleWebKit/537.36 (KHTML, like Gecko) Chrome/111.0.0.0 Safari/537.36" etag="A6v2fAxgV8KUMZgdbbvV" version="20.5.3" type="embed"><diagram id="ftkoy8HX6VoNaSf1c7-8" name="Page-1"><mxGraphModel dx="5638" dy="2785" grid="1" gridSize="10" guides="1" tooltips="1" connect="1" arrows="1" fold="1" page="1" pageScale="1" pageWidth="1654" pageHeight="2336" math="0" shadow="0"><root><mxCell id="0"/><mxCell id="1" parent="0"/><mxCell id="Dq-lEJqBkdMNffWsxi1W-23" value="" style="endArrow=classic;html=1;rounded=0;exitX=0;exitY=0;exitDx=0;exitDy=46.875;exitPerimeter=0;movable=0;resizable=0;rotatable=0;deletable=0;editable=0;connectable=0;" parent="1" source="Dq-lEJqBkdMNffWsxi1W-7" edge="1"><mxGeometry width="50" height="50" relative="1" as="geometry"><mxPoint x="-2610" y="990" as="sourcePoint"/><mxPoint x="-2550" y="420" as="targetPoint"/><Array as="points"><mxPoint x="-2610" y="1397"/><mxPoint x="-2610" y="490"/></Array></mxGeometry></mxCell><mxCell id="7vsqYwUWgoAIwfME-lCQ-32" value="" style="rounded=1;whiteSpace=wrap;html=1;movable=0;resizable=0;rotatable=0;deletable=0;editable=0;locked=0;connectable=0;" parent="1" vertex="1"><mxGeometry x="-2575" y="203.75" width="120" height="60" as="geometry"/></mxCell><mxCell id="7vsqYwUWgoAIwfME-lCQ-4" value="Compensation device" style="text;html=1;strokeColor=none;fillColor=none;align=center;verticalAlign=middle;whiteSpace=wrap;rounded=0;fontSize=17;movable=0;resizable=0;rotatable=0;deletable=0;editable=0;locked=0;connectable=0;" parent="1" vertex="1"><mxGeometry x="-2542.5" y="216.25" width="55" height="35" as="geometry"/></mxCell><mxCell id="7vsqYwUWgoAIwfME-lCQ-5" value="" style="shape=cylinder3;whiteSpace=wrap;html=1;boundedLbl=1;backgroundOutline=1;size=15;movable=0;resizable=0;rotatable=0;deletable=0;editable=0;locked=0;connectable=0;" parent="1" vertex="1"><mxGeometry x="-2350" y="100" width="60" height="72.5" as="geometry"/></mxCell><mxCell id="7vsqYwUWgoAIwfME-lCQ-6" value="" style="endArrow=classic;startArrow=classic;html=1;entryX=0;entryY=0.5;entryDx=0;entryDy=0;entryPerimeter=0;exitX=1;exitY=0.25;exitDx=0;exitDy=0;movable=0;resizable=0;rotatable=0;deletable=0;editable=0;locked=0;connectable=0;" parent="1" source="7vsqYwUWgoAIwfME-lCQ-32" target="7vsqYwUWgoAIwfME-lCQ-5" edge="1"><mxGeometry width="50" height="50" relative="1" as="geometry"><mxPoint x="-2450" y="234" as="sourcePoint"/><mxPoint x="-2340" y="152.5" as="targetPoint"/></mxGeometry></mxCell><mxCell id="7vsqYwUWgoAIwfME-lCQ-10" value="" style="endArrow=classic;startArrow=classic;html=1;exitX=0.932;exitY=0.975;exitDx=0;exitDy=0;entryX=0;entryY=0.5;entryDx=0;entryDy=0;entryPerimeter=0;exitPerimeter=0;movable=0;resizable=0;rotatable=0;deletable=0;editable=0;locked=0;connectable=0;" parent="1" source="7vsqYwUWgoAIwfME-lCQ-33" target="7vsqYwUWgoAIwfME-lCQ-47" edge="1"><mxGeometry width="50" height="50" relative="1" as="geometry"><mxPoint x="-2450" y="412.5" as="sourcePoint"/><mxPoint x="-2360" y="470" as="targetPoint"/></mxGeometry></mxCell><mxCell id="7vsqYwUWgoAIwfME-lCQ-14" value="" style="endArrow=classic;startArrow=classic;html=1;exitX=0.982;exitY=0.933;exitDx=0;exitDy=0;entryX=0;entryY=0.5;entryDx=0;entryDy=0;entryPerimeter=0;exitPerimeter=0;movable=0;resizable=0;rotatable=0;deletable=0;editable=0;locked=0;connectable=0;" parent="1" source="7vsqYwUWgoAIwfME-lCQ-35" target="7vsqYwUWgoAIwfME-lCQ-48" edge="1"><mxGeometry width="50" height="50" relative="1" as="geometry"><mxPoint x="-2450" y="568.75" as="sourcePoint"/><mxPoint x="-2303" y="567.5" as="targetPoint"/></mxGeometry></mxCell><mxCell id="7vsqYwUWgoAIwfME-lCQ-18" value="" style="endArrow=classic;startArrow=classic;html=1;exitX=1.002;exitY=0.34;exitDx=0;exitDy=0;entryX=0;entryY=0.5;entryDx=0;entryDy=0;entryPerimeter=0;exitPerimeter=0;movable=0;resizable=0;rotatable=0;deletable=0;editable=0;locked=0;connectable=0;" parent="1" source="7vsqYwUWgoAIwfME-lCQ-37" target="7vsqYwUWgoAIwfME-lCQ-77" edge="1"><mxGeometry width="50" height="50" relative="1" as="geometry"><mxPoint x="-2497" y="741.25" as="sourcePoint"/><mxPoint x="-2130" y="700" as="targetPoint"/><Array as="points"><mxPoint x="-2370" y="700"/><mxPoint x="-2170" y="700"/></Array></mxGeometry></mxCell><mxCell id="7vsqYwUWgoAIwfME-lCQ-23" value="" style="endArrow=classic;startArrow=classic;html=1;exitX=1;exitY=0.25;exitDx=0;exitDy=0;entryX=0;entryY=0.5;entryDx=0;entryDy=0;entryPerimeter=0;movable=0;resizable=0;rotatable=0;deletable=0;editable=0;locked=0;connectable=0;" parent="1" source="7vsqYwUWgoAIwfME-lCQ-51" edge="1"><mxGeometry width="50" height="50" relative="1" as="geometry"><mxPoint x="-2455" y="963.75" as="sourcePoint"/><mxPoint x="-2308" y="962.5" as="targetPoint"/></mxGeometry></mxCell><mxCell id="7vsqYwUWgoAIwfME-lCQ-33" value="" style="rounded=1;whiteSpace=wrap;html=1;movable=0;resizable=0;rotatable=0;deletable=0;editable=0;locked=0;connectable=0;" parent="1" vertex="1"><mxGeometry x="-2575" y="358.75" width="120" height="60" as="geometry"/></mxCell><mxCell id="7vsqYwUWgoAIwfME-lCQ-34" value="Full&lt;br style=&quot;font-size: 17px;&quot;&gt;information" style="text;html=1;strokeColor=none;fillColor=none;align=center;verticalAlign=middle;whiteSpace=wrap;rounded=0;fontSize=17;movable=0;resizable=0;rotatable=0;deletable=0;editable=0;locked=0;connectable=0;" parent="1" vertex="1"><mxGeometry x="-2542.5" y="371.25" width="55" height="35" as="geometry"/></mxCell><mxCell id="7vsqYwUWgoAIwfME-lCQ-35" value="" style="rounded=1;whiteSpace=wrap;html=1;movable=0;resizable=0;rotatable=0;deletable=0;editable=0;locked=0;connectable=0;" parent="1" vertex="1"><mxGeometry x="-2575" y="540" width="120" height="60" as="geometry"/></mxCell><mxCell id="7vsqYwUWgoAIwfME-lCQ-36" value="Power&lt;br style=&quot;font-size: 17px;&quot;&gt;transformers" style="text;html=1;strokeColor=none;fillColor=none;align=center;verticalAlign=middle;whiteSpace=wrap;rounded=0;fontSize=17;movable=0;resizable=0;rotatable=0;deletable=0;editable=0;locked=0;connectable=0;" parent="1" vertex="1"><mxGeometry x="-2542.5" y="552.5" width="55" height="35" as="geometry"/></mxCell><mxCell id="7vsqYwUWgoAIwfME-lCQ-37" value="" style="rounded=1;whiteSpace=wrap;html=1;movable=0;resizable=0;rotatable=0;deletable=0;editable=0;locked=0;connectable=0;" parent="1" vertex="1"><mxGeometry x="-2580" y="716.25" width="120" height="60" as="geometry"/></mxCell><mxCell id="7vsqYwUWgoAIwfME-lCQ-38" value="High volt&amp;nbsp;cables" style="text;html=1;strokeColor=none;fillColor=none;align=center;verticalAlign=middle;whiteSpace=wrap;rounded=0;fontSize=17;movable=0;resizable=0;rotatable=0;deletable=0;editable=0;locked=0;connectable=0;" parent="1" vertex="1"><mxGeometry x="-2547.5" y="728.75" width="55" height="35" as="geometry"/></mxCell><mxCell id="7vsqYwUWgoAIwfME-lCQ-39" value="" style="rounded=1;whiteSpace=wrap;html=1;movable=0;resizable=0;rotatable=0;deletable=0;editable=0;locked=0;connectable=0;" parent="1" vertex="1"><mxGeometry x="-2580" y="960" width="120" height="60" as="geometry"/></mxCell><mxCell id="7vsqYwUWgoAIwfME-lCQ-40" value="Lighting&lt;br style=&quot;font-size: 17px;&quot;&gt;information" style="text;html=1;strokeColor=none;fillColor=none;align=center;verticalAlign=middle;whiteSpace=wrap;rounded=0;fontSize=17;movable=0;resizable=0;rotatable=0;deletable=0;editable=0;locked=0;connectable=0;" parent="1" vertex="1"><mxGeometry x="-2550" y="972.5" width="55" height="35" as="geometry"/></mxCell><mxCell id="7vsqYwUWgoAIwfME-lCQ-46" value="&lt;font style=&quot;font-size: 18px;&quot;&gt;Compensation Device&lt;br&gt;DB&lt;/font&gt;" style="text;html=1;strokeColor=none;fillColor=none;align=center;verticalAlign=middle;whiteSpace=wrap;rounded=0;movable=0;resizable=0;rotatable=0;deletable=0;editable=0;locked=0;connectable=0;container=0;" parent="1" vertex="1"><mxGeometry x="-2280" y="100" width="130" height="70" as="geometry"/></mxCell><mxCell id="7vsqYwUWgoAIwfME-lCQ-47" value="" style="shape=cylinder3;whiteSpace=wrap;html=1;boundedLbl=1;backgroundOutline=1;size=15;movable=0;resizable=0;rotatable=0;deletable=0;editable=0;locked=0;connectable=0;" parent="1" vertex="1"><mxGeometry x="-2350" y="430" width="60" height="72.5" as="geometry"/></mxCell><mxCell id="7vsqYwUWgoAIwfME-lCQ-48" value="" style="shape=cylinder3;whiteSpace=wrap;html=1;boundedLbl=1;backgroundOutline=1;size=15;movable=0;resizable=0;rotatable=0;deletable=0;editable=0;locked=0;connectable=0;" parent="1" vertex="1"><mxGeometry x="-2350" y="600" width="60" height="72.5" as="geometry"/></mxCell><mxCell id="7vsqYwUWgoAIwfME-lCQ-76" value="" style="edgeStyle=orthogonalEdgeStyle;rounded=0;orthogonalLoop=1;jettySize=auto;html=1;movable=0;resizable=0;rotatable=0;deletable=0;editable=0;locked=0;connectable=0;endArrow=classic;endFill=1;startArrow=classic;startFill=1;" parent="1" edge="1"><mxGeometry relative="1" as="geometry"><mxPoint x="-2460" y="745.8334782608699" as="targetPoint"/><Array as="points"><mxPoint x="-2390" y="745.79"/><mxPoint x="-2390" y="745.79"/></Array><mxPoint x="-2350" y="745.8733333333334" as="sourcePoint"/></mxGeometry></mxCell><mxCell id="7vsqYwUWgoAIwfME-lCQ-50" value="" style="shape=cylinder3;whiteSpace=wrap;html=1;boundedLbl=1;backgroundOutline=1;size=15;movable=0;resizable=0;rotatable=0;deletable=0;editable=0;locked=0;connectable=0;" parent="1" vertex="1"><mxGeometry x="-2350" y="716.25" width="60" height="72.5" as="geometry"/></mxCell><mxCell id="7vsqYwUWgoAIwfME-lCQ-53" value="&lt;font style=&quot;font-size: 18px;&quot;&gt;Compensation&lt;br&gt;Device Selection&lt;br&gt;DB&lt;/font&gt;" style="text;html=1;strokeColor=none;fillColor=none;align=center;verticalAlign=middle;whiteSpace=wrap;rounded=0;movable=0;resizable=0;rotatable=0;deletable=0;editable=0;locked=0;connectable=0;" parent="1" vertex="1"><mxGeometry x="-2330" y="258.75" width="130" height="100" as="geometry"/></mxCell><mxCell id="7vsqYwUWgoAIwfME-lCQ-54" value="" style="shape=cylinder3;whiteSpace=wrap;html=1;boundedLbl=1;backgroundOutline=1;size=15;movable=0;resizable=0;rotatable=0;deletable=0;editable=0;locked=0;connectable=0;" parent="1" vertex="1"><mxGeometry x="-2393" y="263.75" width="60" height="72.5" as="geometry"/></mxCell><mxCell id="7vsqYwUWgoAIwfME-lCQ-55" value="" style="endArrow=classic;startArrow=classic;html=1;entryX=0;entryY=1;entryDx=0;entryDy=-15;entryPerimeter=0;movable=0;resizable=0;rotatable=0;deletable=0;editable=0;locked=0;connectable=0;" parent="1" target="7vsqYwUWgoAIwfME-lCQ-54" edge="1"><mxGeometry width="50" height="50" relative="1" as="geometry"><mxPoint x="-2450" y="370" as="sourcePoint"/><mxPoint x="-2308" y="290" as="targetPoint"/></mxGeometry></mxCell><mxCell id="7vsqYwUWgoAIwfME-lCQ-56" value="" style="endArrow=none;startArrow=classic;html=1;exitX=1;exitY=0.75;exitDx=0;exitDy=0;movable=0;resizable=0;rotatable=0;deletable=0;editable=0;locked=0;connectable=0;endFill=0;" parent="1" source="7vsqYwUWgoAIwfME-lCQ-32" edge="1"><mxGeometry width="50" height="50" relative="1" as="geometry"><mxPoint x="-2440" y="244" as="sourcePoint"/><mxPoint x="-2393" y="289" as="targetPoint"/></mxGeometry></mxCell><mxCell id="7vsqYwUWgoAIwfME-lCQ-57" value="" style="shape=cylinder3;whiteSpace=wrap;html=1;boundedLbl=1;backgroundOutline=1;size=15;movable=0;resizable=0;rotatable=0;deletable=0;editable=0;locked=0;connectable=0;" parent="1" vertex="1"><mxGeometry x="-2150" y="263.75" width="60" height="72.5" as="geometry"/></mxCell><mxCell id="7vsqYwUWgoAIwfME-lCQ-58" value="" style="endArrow=none;startArrow=classic;html=1;exitX=1;exitY=0.5;exitDx=0;exitDy=0;entryX=0;entryY=0;entryDx=0;entryDy=25.625;entryPerimeter=0;movable=0;resizable=0;rotatable=0;deletable=0;editable=0;locked=0;connectable=0;startFill=1;endFill=0;" parent="1" source="7vsqYwUWgoAIwfME-lCQ-32" target="7vsqYwUWgoAIwfME-lCQ-57" edge="1"><mxGeometry width="50" height="50" relative="1" as="geometry"><mxPoint x="-2445" y="259" as="sourcePoint"/><mxPoint x="-2290" y="220" as="targetPoint"/><Array as="points"><mxPoint x="-2180" y="234"/><mxPoint x="-2180" y="289"/></Array></mxGeometry></mxCell><mxCell id="7vsqYwUWgoAIwfME-lCQ-59" value="" style="endArrow=classic;startArrow=classic;html=1;exitX=1.003;exitY=0.427;exitDx=0;exitDy=0;exitPerimeter=0;entryX=0;entryY=0;entryDx=0;entryDy=46.875;entryPerimeter=0;movable=0;resizable=0;rotatable=0;deletable=0;editable=0;locked=0;connectable=0;" parent="1" source="7vsqYwUWgoAIwfME-lCQ-33" target="7vsqYwUWgoAIwfME-lCQ-57" edge="1"><mxGeometry width="50" height="50" relative="1" as="geometry"><mxPoint x="-2455" y="374" as="sourcePoint"/><mxPoint x="-2340" y="384" as="targetPoint"/><Array as="points"><mxPoint x="-2180" y="384"/><mxPoint x="-2180" y="311"/></Array></mxGeometry></mxCell><mxCell id="7vsqYwUWgoAIwfME-lCQ-62" value="" style="group;movable=0;resizable=0;rotatable=0;deletable=0;editable=0;locked=0;connectable=0;" parent="1" vertex="1" connectable="0"><mxGeometry x="-2180" y="172.5" width="255" height="90" as="geometry"/></mxCell><mxCell id="7vsqYwUWgoAIwfME-lCQ-63" value="&lt;font style=&quot;font-size: 18px;&quot;&gt;Full&lt;br&gt;Information&lt;br&gt;DB&lt;/font&gt;" style="text;html=1;strokeColor=none;fillColor=none;align=center;verticalAlign=middle;whiteSpace=wrap;rounded=0;movable=0;resizable=0;rotatable=0;deletable=0;editable=0;locked=0;connectable=0;" parent="7vsqYwUWgoAIwfME-lCQ-62" vertex="1"><mxGeometry y="25" width="130" height="40" as="geometry"/></mxCell><mxCell id="7vsqYwUWgoAIwfME-lCQ-66" value="&lt;font style=&quot;font-size: 18px;&quot;&gt;Full-Start&lt;br&gt;Information&lt;br&gt;DB&lt;/font&gt;" style="text;html=1;strokeColor=none;fillColor=none;align=center;verticalAlign=middle;whiteSpace=wrap;rounded=0;movable=0;resizable=0;rotatable=0;deletable=0;editable=0;locked=0;connectable=0;container=0;" parent="7vsqYwUWgoAIwfME-lCQ-62" vertex="1"><mxGeometry x="125" y="25" width="130" height="40" as="geometry"/></mxCell><mxCell id="7vsqYwUWgoAIwfME-lCQ-65" value="" style="shape=cylinder3;whiteSpace=wrap;html=1;boundedLbl=1;backgroundOutline=1;size=15;movable=0;resizable=0;rotatable=0;deletable=0;editable=0;locked=0;connectable=0;" parent="1" vertex="1"><mxGeometry x="-2020" y="263.75" width="60" height="72.5" as="geometry"/></mxCell><mxCell id="7vsqYwUWgoAIwfME-lCQ-67" value="" style="endArrow=classic;startArrow=classic;html=1;exitX=1;exitY=0.25;exitDx=0;exitDy=0;entryX=0;entryY=0.5;entryDx=0;entryDy=0;entryPerimeter=0;movable=0;resizable=0;rotatable=0;deletable=0;editable=0;locked=0;connectable=0;" parent="1" target="7vsqYwUWgoAIwfME-lCQ-65" edge="1"><mxGeometry width="50" height="50" relative="1" as="geometry"><mxPoint x="-2090" y="301.25" as="sourcePoint"/><mxPoint x="-2000" y="358.75" as="targetPoint"/></mxGeometry></mxCell><mxCell id="7vsqYwUWgoAIwfME-lCQ-68" value="&lt;font style=&quot;font-size: 18px;&quot;&gt;Transformer Selection &lt;br&gt;DB&lt;/font&gt;" style="text;html=1;strokeColor=none;fillColor=none;align=center;verticalAlign=middle;whiteSpace=wrap;rounded=0;movable=0;resizable=0;rotatable=0;deletable=0;editable=0;locked=0;connectable=0;container=0;" parent="1" vertex="1"><mxGeometry x="-2290" y="430" width="130" height="80" as="geometry"/></mxCell><mxCell id="7vsqYwUWgoAIwfME-lCQ-69" value="" style="endArrow=none;startArrow=classic;html=1;exitX=1;exitY=0.25;exitDx=0;exitDy=0;entryX=0;entryY=1;entryDx=0;entryDy=-15;entryPerimeter=0;movable=0;resizable=0;rotatable=0;deletable=0;editable=0;locked=0;connectable=0;startFill=1;endFill=0;" parent="1" source="7vsqYwUWgoAIwfME-lCQ-35" target="7vsqYwUWgoAIwfME-lCQ-47" edge="1"><mxGeometry width="50" height="50" relative="1" as="geometry"><mxPoint x="-2440" y="422.5" as="sourcePoint"/><mxPoint x="-2350" y="480" as="targetPoint"/></mxGeometry></mxCell><mxCell id="7vsqYwUWgoAIwfME-lCQ-70" value="&lt;font style=&quot;font-size: 18px;&quot;&gt;Power Transformers&amp;nbsp; DB&lt;/font&gt;" style="text;html=1;strokeColor=none;fillColor=none;align=center;verticalAlign=middle;whiteSpace=wrap;rounded=0;movable=0;resizable=0;rotatable=0;deletable=0;editable=0;locked=0;connectable=0;" parent="1" vertex="1"><mxGeometry x="-2280" y="599.38" width="130" height="73.75" as="geometry"/></mxCell><mxCell id="7vsqYwUWgoAIwfME-lCQ-71" value="" style="endArrow=none;startArrow=classic;html=1;exitX=0.993;exitY=0.355;exitDx=0;exitDy=0;entryX=0.5;entryY=1;entryDx=0;entryDy=0;entryPerimeter=0;exitPerimeter=0;movable=0;resizable=0;rotatable=0;deletable=0;editable=0;locked=0;connectable=0;endFill=0;" parent="1" source="7vsqYwUWgoAIwfME-lCQ-35" target="7vsqYwUWgoAIwfME-lCQ-57" edge="1"><mxGeometry width="50" height="50" relative="1" as="geometry"><mxPoint x="-2455" y="613" as="sourcePoint"/><mxPoint x="-2150" y="540" as="targetPoint"/><Array as="points"><mxPoint x="-2120" y="560"/></Array></mxGeometry></mxCell><mxCell id="7vsqYwUWgoAIwfME-lCQ-72" value="" style="endArrow=none;startArrow=classic;html=1;exitX=1.011;exitY=0.111;exitDx=0;exitDy=0;entryX=0;entryY=0.828;entryDx=0;entryDy=0;entryPerimeter=0;exitPerimeter=0;movable=0;resizable=0;rotatable=0;deletable=0;editable=0;locked=0;connectable=0;endFill=0;" parent="1" source="7vsqYwUWgoAIwfME-lCQ-37" target="7vsqYwUWgoAIwfME-lCQ-48" edge="1"><mxGeometry width="50" height="50" relative="1" as="geometry"><mxPoint x="-2445" y="595" as="sourcePoint"/><mxPoint x="-2340" y="646" as="targetPoint"/></mxGeometry></mxCell><mxCell id="7vsqYwUWgoAIwfME-lCQ-73" value="&lt;font style=&quot;font-size: 18px;&quot;&gt;High Volt&lt;br&gt;Cable Selection&lt;br&gt;&amp;nbsp;DB&lt;/font&gt;" style="text;html=1;strokeColor=none;fillColor=none;align=center;verticalAlign=middle;whiteSpace=wrap;rounded=0;movable=0;resizable=0;rotatable=0;deletable=0;editable=0;locked=0;connectable=0;" parent="1" vertex="1"><mxGeometry x="-2280" y="716.25" width="130" height="66.25" as="geometry"/></mxCell><mxCell id="7vsqYwUWgoAIwfME-lCQ-74" value="" style="shape=cylinder3;whiteSpace=wrap;html=1;boundedLbl=1;backgroundOutline=1;size=15;movable=0;resizable=0;rotatable=0;deletable=0;editable=0;locked=0;connectable=0;" parent="1" vertex="1"><mxGeometry x="-2350" y="820" width="60" height="72.5" as="geometry"/></mxCell><mxCell id="7vsqYwUWgoAIwfME-lCQ-75" value="" style="endArrow=classic;startArrow=classic;html=1;exitX=1;exitY=1;exitDx=0;exitDy=0;entryX=0;entryY=0.5;entryDx=0;entryDy=0;entryPerimeter=0;movable=0;resizable=0;rotatable=0;deletable=0;editable=0;locked=0;connectable=0;" parent="1" source="7vsqYwUWgoAIwfME-lCQ-37" target="7vsqYwUWgoAIwfME-lCQ-74" edge="1"><mxGeometry width="50" height="50" relative="1" as="geometry"><mxPoint x="-2450" y="750" as="sourcePoint"/><mxPoint x="-2340" y="750" as="targetPoint"/></mxGeometry></mxCell><mxCell id="7vsqYwUWgoAIwfME-lCQ-77" value="" style="shape=cylinder3;whiteSpace=wrap;html=1;boundedLbl=1;backgroundOutline=1;size=15;movable=0;resizable=0;rotatable=0;deletable=0;editable=0;locked=0;connectable=0;" parent="1" vertex="1"><mxGeometry x="-2120" y="716.25" width="60" height="72.5" as="geometry"/></mxCell><mxCell id="7vsqYwUWgoAIwfME-lCQ-78" value="&lt;font style=&quot;font-size: 18px;&quot;&gt;High Volt Information &lt;br&gt;DB&lt;/font&gt;" style="text;html=1;strokeColor=none;fillColor=none;align=center;verticalAlign=middle;whiteSpace=wrap;rounded=0;movable=0;resizable=0;rotatable=0;deletable=0;editable=0;locked=0;connectable=0;" parent="1" vertex="1"><mxGeometry x="-2155" y="646.25" width="130" height="70" as="geometry"/></mxCell><mxCell id="7vsqYwUWgoAIwfME-lCQ-79" value="&lt;font style=&quot;font-size: 18px;&quot;&gt;Inductive Impedance Areas DB&lt;/font&gt;" style="text;html=1;strokeColor=none;fillColor=none;align=center;verticalAlign=middle;whiteSpace=wrap;rounded=0;movable=0;resizable=0;rotatable=0;deletable=0;editable=0;locked=0;connectable=0;" parent="1" vertex="1"><mxGeometry x="-2020" y="636.25" width="130" height="80" as="geometry"/></mxCell><mxCell id="7vsqYwUWgoAIwfME-lCQ-81" value="" style="shape=cylinder3;whiteSpace=wrap;html=1;boundedLbl=1;backgroundOutline=1;size=15;movable=0;resizable=0;rotatable=0;deletable=0;editable=0;locked=0;connectable=0;" parent="1" vertex="1"><mxGeometry x="-1990" y="716.25" width="60" height="72.5" as="geometry"/></mxCell><mxCell id="7vsqYwUWgoAIwfME-lCQ-82" value="" style="endArrow=classic;startArrow=classic;html=1;exitX=1;exitY=0.5;exitDx=0;exitDy=0;exitPerimeter=0;entryX=0;entryY=0.5;entryDx=0;entryDy=0;entryPerimeter=0;movable=0;resizable=0;rotatable=0;deletable=0;editable=0;locked=0;connectable=0;" parent="1" source="7vsqYwUWgoAIwfME-lCQ-77" target="7vsqYwUWgoAIwfME-lCQ-81" edge="1"><mxGeometry width="50" height="50" relative="1" as="geometry"><mxPoint x="-2040" y="780" as="sourcePoint"/><mxPoint x="-2000" y="770" as="targetPoint"/></mxGeometry></mxCell><mxCell id="7vsqYwUWgoAIwfME-lCQ-84" value="" style="endArrow=classic;startArrow=classic;html=1;exitX=1;exitY=0.25;exitDx=0;exitDy=0;entryX=0;entryY=0.5;entryDx=0;entryDy=0;entryPerimeter=0;movable=0;resizable=0;rotatable=0;deletable=0;editable=0;locked=0;connectable=0;" parent="1" source="7vsqYwUWgoAIwfME-lCQ-39" target="7vsqYwUWgoAIwfME-lCQ-51" edge="1"><mxGeometry width="50" height="50" relative="1" as="geometry"><mxPoint x="-2455" y="963.75" as="sourcePoint"/><mxPoint x="-2308" y="962.5" as="targetPoint"/></mxGeometry></mxCell><mxCell id="7vsqYwUWgoAIwfME-lCQ-51" value="" style="shape=cylinder3;whiteSpace=wrap;html=1;boundedLbl=1;backgroundOutline=1;size=15;movable=0;resizable=0;rotatable=0;deletable=0;editable=0;locked=0;connectable=0;" parent="1" vertex="1"><mxGeometry x="-2350" y="911.25" width="60" height="72.5" as="geometry"/></mxCell><mxCell id="7vsqYwUWgoAIwfME-lCQ-85" value="" style="shape=cylinder3;whiteSpace=wrap;html=1;boundedLbl=1;backgroundOutline=1;size=15;movable=0;resizable=0;rotatable=0;deletable=0;editable=0;locked=0;connectable=0;" parent="1" vertex="1"><mxGeometry x="-2350" y="1026.88" width="60" height="72.5" as="geometry"/></mxCell><mxCell id="7vsqYwUWgoAIwfME-lCQ-86" value="" style="endArrow=classic;startArrow=classic;html=1;exitX=1;exitY=1;exitDx=0;exitDy=0;entryX=0;entryY=0;entryDx=0;entryDy=25.625;entryPerimeter=0;movable=0;resizable=0;rotatable=0;deletable=0;editable=0;locked=0;connectable=0;" parent="1" source="7vsqYwUWgoAIwfME-lCQ-39" target="7vsqYwUWgoAIwfME-lCQ-85" edge="1"><mxGeometry width="50" height="50" relative="1" as="geometry"><mxPoint x="-2450" y="985" as="sourcePoint"/><mxPoint x="-2340" y="966" as="targetPoint"/></mxGeometry></mxCell><mxCell id="7vsqYwUWgoAIwfME-lCQ-87" value="&lt;font style=&quot;font-size: 18px;&quot;&gt;Luminaire Selection&lt;br&gt;DB&lt;/font&gt;" style="text;html=1;strokeColor=none;fillColor=none;align=center;verticalAlign=middle;whiteSpace=wrap;rounded=0;movable=0;resizable=0;rotatable=0;deletable=0;editable=0;locked=0;connectable=0;" parent="1" vertex="1"><mxGeometry x="-2285" y="910" width="130" height="73.75" as="geometry"/></mxCell><mxCell id="7vsqYwUWgoAIwfME-lCQ-88" value="&lt;font style=&quot;font-size: 18px;&quot;&gt;Light Information&lt;br&gt;DB&lt;/font&gt;" style="text;html=1;strokeColor=none;fillColor=none;align=center;verticalAlign=middle;whiteSpace=wrap;rounded=0;movable=0;resizable=0;rotatable=0;deletable=0;editable=0;locked=0;connectable=0;" parent="1" vertex="1"><mxGeometry x="-2285" y="1020" width="130" height="86.25" as="geometry"/></mxCell><mxCell id="7vsqYwUWgoAIwfME-lCQ-107" value="" style="whiteSpace=wrap;html=1;aspect=fixed;movable=0;resizable=0;rotatable=0;deletable=0;editable=0;locked=0;connectable=0;" parent="1" vertex="1"><mxGeometry x="-3180" y="750" width="70" height="70" as="geometry"/></mxCell><mxCell id="7vsqYwUWgoAIwfME-lCQ-108" value="&lt;font style=&quot;font-size: 15px&quot;&gt;Gateway&lt;/font&gt;" style="text;html=1;strokeColor=none;fillColor=none;align=center;verticalAlign=middle;whiteSpace=wrap;rounded=0;movable=0;resizable=0;rotatable=0;deletable=0;editable=0;locked=0;connectable=0;" parent="1" vertex="1"><mxGeometry x="-3172.5" y="767.5" width="55" height="35" as="geometry"/></mxCell><mxCell id="7vsqYwUWgoAIwfME-lCQ-109" value="Client" style="ellipse;whiteSpace=wrap;html=1;aspect=fixed;movable=0;resizable=0;rotatable=0;deletable=0;editable=0;locked=0;connectable=0;" parent="1" vertex="1"><mxGeometry x="-3290" y="757.5" width="55" height="55" as="geometry"/></mxCell><mxCell id="7vsqYwUWgoAIwfME-lCQ-110" value="" style="endArrow=classic;html=1;movable=0;resizable=0;rotatable=0;deletable=0;editable=0;locked=0;connectable=0;" parent="1" edge="1"><mxGeometry width="50" height="50" relative="1" as="geometry"><mxPoint x="-3220" y="785" as="sourcePoint"/><mxPoint x="-3190" y="785" as="targetPoint"/></mxGeometry></mxCell><mxCell id="7vsqYwUWgoAIwfME-lCQ-133" value="" style="endArrow=classic;html=1;rounded=0;entryX=0;entryY=0.5;entryDx=0;entryDy=0;exitX=1;exitY=0.5;exitDx=0;exitDy=0;movable=0;resizable=0;rotatable=0;deletable=0;editable=0;locked=0;connectable=0;" parent="1" source="7vsqYwUWgoAIwfME-lCQ-107" target="7vsqYwUWgoAIwfME-lCQ-32" edge="1"><mxGeometry width="50" height="50" relative="1" as="geometry"><mxPoint x="-2930" y="710" as="sourcePoint"/><mxPoint x="-2810" y="590" as="targetPoint"/></mxGeometry></mxCell><mxCell id="7vsqYwUWgoAIwfME-lCQ-134" value="" style="endArrow=classic;html=1;rounded=0;entryX=0;entryY=0.5;entryDx=0;entryDy=0;exitX=1;exitY=0.5;exitDx=0;exitDy=0;movable=0;resizable=0;rotatable=0;deletable=0;editable=0;locked=0;connectable=0;" parent="1" source="7vsqYwUWgoAIwfME-lCQ-107" target="7vsqYwUWgoAIwfME-lCQ-33" edge="1"><mxGeometry width="50" height="50" relative="1" as="geometry"><mxPoint x="-2920" y="720" as="sourcePoint"/><mxPoint x="-2800" y="600" as="targetPoint"/></mxGeometry></mxCell><mxCell id="7vsqYwUWgoAIwfME-lCQ-135" value="" style="endArrow=classic;html=1;rounded=0;entryX=0;entryY=0.5;entryDx=0;entryDy=0;movable=0;resizable=0;rotatable=0;deletable=0;editable=0;locked=0;connectable=0;" parent="1" target="7vsqYwUWgoAIwfME-lCQ-35" edge="1"><mxGeometry width="50" height="50" relative="1" as="geometry"><mxPoint x="-3110" y="785" as="sourcePoint"/><mxPoint x="-2790" y="610" as="targetPoint"/></mxGeometry></mxCell><mxCell id="7vsqYwUWgoAIwfME-lCQ-136" value="" style="endArrow=classic;html=1;rounded=0;entryX=0;entryY=0.5;entryDx=0;entryDy=0;exitX=1;exitY=0.5;exitDx=0;exitDy=0;movable=0;resizable=0;rotatable=0;deletable=0;editable=0;locked=0;connectable=0;" parent="1" source="7vsqYwUWgoAIwfME-lCQ-107" target="7vsqYwUWgoAIwfME-lCQ-37" edge="1"><mxGeometry width="50" height="50" relative="1" as="geometry"><mxPoint x="-2900" y="740" as="sourcePoint"/><mxPoint x="-2780" y="620" as="targetPoint"/></mxGeometry></mxCell><mxCell id="7vsqYwUWgoAIwfME-lCQ-141" value="" style="endArrow=classic;html=1;rounded=0;entryX=0;entryY=0.5;entryDx=0;entryDy=0;exitX=1;exitY=0.5;exitDx=0;exitDy=0;movable=0;resizable=0;rotatable=0;deletable=0;editable=0;locked=0;connectable=0;" parent="1" source="7vsqYwUWgoAIwfME-lCQ-107" edge="1"><mxGeometry width="50" height="50" relative="1" as="geometry"><mxPoint x="-2850" y="790" as="sourcePoint"/><mxPoint x="-2580" y="1500" as="targetPoint"/></mxGeometry></mxCell><mxCell id="7vsqYwUWgoAIwfME-lCQ-142" value="" style="endArrow=classic;html=1;rounded=0;entryX=0;entryY=0.5;entryDx=0;entryDy=0;exitX=1;exitY=0.5;exitDx=0;exitDy=0;movable=0;resizable=0;rotatable=0;deletable=0;editable=0;locked=0;connectable=0;" parent="1" source="7vsqYwUWgoAIwfME-lCQ-107" edge="1"><mxGeometry width="50" height="50" relative="1" as="geometry"><mxPoint x="-2840" y="800" as="sourcePoint"/><mxPoint x="-2580" y="1310" as="targetPoint"/></mxGeometry></mxCell><mxCell id="7vsqYwUWgoAIwfME-lCQ-143" value="" style="endArrow=classic;html=1;rounded=0;entryX=0;entryY=0.5;entryDx=0;entryDy=0;exitX=1;exitY=0.5;exitDx=0;exitDy=0;movable=0;resizable=0;rotatable=0;deletable=0;editable=0;locked=0;connectable=0;" parent="1" source="7vsqYwUWgoAIwfME-lCQ-107" target="7vsqYwUWgoAIwfME-lCQ-39" edge="1"><mxGeometry width="50" height="50" relative="1" as="geometry"><mxPoint x="-3110" y="790" as="sourcePoint"/><mxPoint x="-2710" y="690" as="targetPoint"/></mxGeometry></mxCell><mxCell id="7vsqYwUWgoAIwfME-lCQ-171" value="" style="whiteSpace=wrap;html=1;aspect=fixed;movable=0;resizable=0;rotatable=0;deletable=0;editable=0;locked=0;connectable=0;" parent="1" vertex="1"><mxGeometry x="-2957" y="1420" width="75" height="75" as="geometry"/></mxCell><mxCell id="7vsqYwUWgoAIwfME-lCQ-172" value="" style="whiteSpace=wrap;html=1;aspect=fixed;movable=0;resizable=0;rotatable=0;deletable=0;editable=0;locked=0;connectable=0;" parent="1" vertex="1"><mxGeometry x="-3091" y="1420" width="77.5" height="77.5" as="geometry"/></mxCell><mxCell id="7vsqYwUWgoAIwfME-lCQ-173" value="&lt;font style=&quot;font-size: 17px;&quot;&gt;Discovery&lt;/font&gt;" style="text;html=1;strokeColor=none;fillColor=none;align=center;verticalAlign=middle;whiteSpace=wrap;rounded=0;movable=0;resizable=0;rotatable=0;deletable=0;editable=0;locked=0;connectable=0;" parent="1" vertex="1"><mxGeometry x="-3079.75" y="1441.25" width="55" height="35" as="geometry"/></mxCell><mxCell id="7vsqYwUWgoAIwfME-lCQ-174" value="&lt;font style=&quot;font-size: 17px;&quot;&gt;Config&lt;/font&gt;" style="text;html=1;strokeColor=none;fillColor=none;align=center;verticalAlign=middle;whiteSpace=wrap;rounded=0;movable=0;resizable=0;rotatable=0;deletable=0;editable=0;locked=0;connectable=0;" parent="1" vertex="1"><mxGeometry x="-2947" y="1441.25" width="55" height="35" as="geometry"/></mxCell><mxCell id="7vsqYwUWgoAIwfME-lCQ-175" value="" style="endArrow=classic;html=1;entryX=0;entryY=0.5;entryDx=0;entryDy=0;exitX=0.75;exitY=1;exitDx=0;exitDy=0;startArrow=classic;startFill=1;movable=0;resizable=0;rotatable=0;deletable=0;editable=0;locked=0;connectable=0;" parent="1" source="7vsqYwUWgoAIwfME-lCQ-107" edge="1"><mxGeometry width="50" height="50" relative="1" as="geometry"><mxPoint x="-3120" y="830" as="sourcePoint"/><mxPoint x="-3091" y="1460.5" as="targetPoint"/><Array as="points"><mxPoint x="-3130" y="1461"/></Array></mxGeometry></mxCell><mxCell id="7vsqYwUWgoAIwfME-lCQ-176" value="" style="endArrow=classic;html=1;entryX=0.25;entryY=1;entryDx=0;entryDy=0;startArrow=classic;startFill=1;movable=0;resizable=0;rotatable=0;deletable=0;editable=0;locked=0;connectable=0;" parent="1" target="7vsqYwUWgoAIwfME-lCQ-171" edge="1"><mxGeometry width="50" height="50" relative="1" as="geometry"><mxPoint x="-3145.5" y="820" as="sourcePoint"/><mxPoint x="-2922" y="1495.5" as="targetPoint"/><Array as="points"><mxPoint x="-3146" y="1547.5"/><mxPoint x="-2940" y="1550"/></Array></mxGeometry></mxCell><mxCell id="7vsqYwUWgoAIwfME-lCQ-177" value="" style="endArrow=classic;html=1;entryX=0.75;entryY=1;entryDx=0;entryDy=0;exitX=0.75;exitY=0;exitDx=0;exitDy=0;startArrow=classic;startFill=1;movable=0;resizable=0;rotatable=0;deletable=0;editable=0;locked=0;connectable=0;" parent="1" source="7vsqYwUWgoAIwfME-lCQ-32" target="7vsqYwUWgoAIwfME-lCQ-171" edge="1"><mxGeometry width="50" height="50" relative="1" as="geometry"><mxPoint x="-2000" y="410" as="sourcePoint"/><mxPoint x="-3056" y="1495.5" as="targetPoint"/><Array as="points"><mxPoint x="-2485" y="70"/><mxPoint x="-1880" y="70"/><mxPoint x="-1880" y="1570"/><mxPoint x="-2900" y="1570"/></Array></mxGeometry></mxCell><mxCell id="7vsqYwUWgoAIwfME-lCQ-190" value="REST" style="text;html=1;strokeColor=none;fillColor=none;align=center;verticalAlign=middle;whiteSpace=wrap;rounded=0;movable=0;resizable=0;rotatable=0;deletable=0;editable=0;locked=0;connectable=0;" parent="1" vertex="1"><mxGeometry x="-2840" y="1026.88" width="40" height="20" as="geometry"/></mxCell><mxCell id="7vsqYwUWgoAIwfME-lCQ-192" value="REST" style="text;html=1;strokeColor=none;fillColor=none;align=center;verticalAlign=middle;whiteSpace=wrap;rounded=0;movable=0;resizable=0;rotatable=0;deletable=0;editable=0;locked=0;connectable=0;" parent="1" vertex="1"><mxGeometry x="-2840" y="860" width="40" height="20" as="geometry"/></mxCell><mxCell id="7vsqYwUWgoAIwfME-lCQ-193" value="REST" style="text;html=1;strokeColor=none;fillColor=none;align=center;verticalAlign=middle;whiteSpace=wrap;rounded=0;movable=0;resizable=0;rotatable=0;deletable=0;editable=0;locked=0;connectable=0;" parent="1" vertex="1"><mxGeometry x="-2840" y="737.5" width="40" height="20" as="geometry"/></mxCell><mxCell id="7vsqYwUWgoAIwfME-lCQ-194" value="REST" style="text;html=1;strokeColor=none;fillColor=none;align=center;verticalAlign=middle;whiteSpace=wrap;rounded=0;movable=0;resizable=0;rotatable=0;deletable=0;editable=0;locked=0;connectable=0;" parent="1" vertex="1"><mxGeometry x="-2840" y="636.25" width="40" height="20" as="geometry"/></mxCell><mxCell id="7vsqYwUWgoAIwfME-lCQ-195" value="REST" style="text;html=1;strokeColor=none;fillColor=none;align=center;verticalAlign=middle;whiteSpace=wrap;rounded=0;movable=0;resizable=0;rotatable=0;deletable=0;editable=0;locked=0;connectable=0;" parent="1" vertex="1"><mxGeometry x="-2840" y="532.5" width="40" height="20" as="geometry"/></mxCell><mxCell id="7vsqYwUWgoAIwfME-lCQ-196" value="REST" style="text;html=1;strokeColor=none;fillColor=none;align=center;verticalAlign=middle;whiteSpace=wrap;rounded=0;movable=0;resizable=0;rotatable=0;deletable=0;editable=0;locked=0;connectable=0;" parent="1" vertex="1"><mxGeometry x="-2840" y="440" width="40" height="20" as="geometry"/></mxCell><mxCell id="7vsqYwUWgoAIwfME-lCQ-200" value="REST" style="text;html=1;strokeColor=none;fillColor=none;align=center;verticalAlign=middle;whiteSpace=wrap;rounded=0;movable=0;resizable=0;rotatable=0;deletable=0;editable=0;locked=0;connectable=0;" parent="1" vertex="1"><mxGeometry x="-2840" y="1130" width="40" height="20" as="geometry"/></mxCell><mxCell id="7Trw_0Wt9Phxs4xXXTra-4" value="" style="endArrow=classic;html=1;rounded=0;startArrow=classic;startFill=1;movable=0;resizable=0;rotatable=0;deletable=0;editable=0;locked=0;connectable=0;" parent="1" edge="1"><mxGeometry width="50" height="50" relative="1" as="geometry"><mxPoint x="-1880" y="1007.5" as="sourcePoint"/><mxPoint x="-2460" y="1007.5" as="targetPoint"/></mxGeometry></mxCell><mxCell id="7Trw_0Wt9Phxs4xXXTra-6" value="" style="endArrow=classic;html=1;rounded=0;entryX=1.023;entryY=0.637;entryDx=0;entryDy=0;startArrow=classic;startFill=1;entryPerimeter=0;movable=0;resizable=0;rotatable=0;deletable=0;editable=0;locked=0;connectable=0;" parent="1" target="7vsqYwUWgoAIwfME-lCQ-37" edge="1"><mxGeometry width="50" height="50" relative="1" as="geometry"><mxPoint x="-1880" y="800" as="sourcePoint"/><mxPoint x="-2455" y="820" as="targetPoint"/><Array as="points"><mxPoint x="-2370" y="800"/></Array></mxGeometry></mxCell><mxCell id="7Trw_0Wt9Phxs4xXXTra-7" value="" style="endArrow=classic;html=1;rounded=0;entryX=1;entryY=0.75;entryDx=0;entryDy=0;startArrow=classic;startFill=1;movable=0;resizable=0;rotatable=0;deletable=0;editable=0;locked=0;connectable=0;" parent="1" target="7vsqYwUWgoAIwfME-lCQ-35" edge="1"><mxGeometry width="50" height="50" relative="1" as="geometry"><mxPoint x="-1880" y="585" as="sourcePoint"/><mxPoint x="-2440" y="587.5" as="targetPoint"/></mxGeometry></mxCell><mxCell id="7Trw_0Wt9Phxs4xXXTra-8" value="" style="endArrow=classic;html=1;rounded=0;entryX=1.005;entryY=0.855;entryDx=0;entryDy=0;startArrow=classic;startFill=1;entryPerimeter=0;movable=0;resizable=0;rotatable=0;deletable=0;editable=0;locked=0;connectable=0;" parent="1" target="7vsqYwUWgoAIwfME-lCQ-33" edge="1"><mxGeometry width="50" height="50" relative="1" as="geometry"><mxPoint x="-1880" y="410" as="sourcePoint"/><mxPoint x="-2408" y="418.75" as="targetPoint"/></mxGeometry></mxCell><mxCell id="7Trw_0Wt9Phxs4xXXTra-13" value="" style="endArrow=classic;html=1;rounded=1;entryX=0.5;entryY=1;entryDx=0;entryDy=0;startArrow=classic;startFill=1;movable=0;resizable=0;rotatable=0;deletable=0;editable=0;locked=0;connectable=0;" parent="1" target="7vsqYwUWgoAIwfME-lCQ-172" edge="1"><mxGeometry width="50" height="50" relative="1" as="geometry"><mxPoint x="-2530" y="200" as="sourcePoint"/><mxPoint x="-2450" y="1610" as="targetPoint"/><Array as="points"><mxPoint x="-2530" y="40"/><mxPoint x="-1840" y="40"/><mxPoint x="-1840" y="1600"/><mxPoint x="-3052" y="1600"/></Array></mxGeometry></mxCell><mxCell id="7Trw_0Wt9Phxs4xXXTra-17" value="" style="endArrow=classic;html=1;rounded=0;startArrow=classic;startFill=1;entryX=1;entryY=0.5;entryDx=0;entryDy=0;movable=0;resizable=0;rotatable=0;deletable=0;editable=0;locked=0;connectable=0;" parent="1" target="7vsqYwUWgoAIwfME-lCQ-39" edge="1"><mxGeometry width="50" height="50" relative="1" as="geometry"><mxPoint x="-1840" y="990" as="sourcePoint"/><mxPoint x="-2460" y="1000" as="targetPoint"/></mxGeometry></mxCell><mxCell id="7Trw_0Wt9Phxs4xXXTra-18" value="" style="endArrow=classic;html=1;rounded=0;entryX=1.015;entryY=0.824;entryDx=0;entryDy=0;startArrow=classic;startFill=1;entryPerimeter=0;movable=0;resizable=0;rotatable=0;deletable=0;editable=0;locked=0;connectable=0;" parent="1" target="7vsqYwUWgoAIwfME-lCQ-37" edge="1"><mxGeometry width="50" height="50" relative="1" as="geometry"><mxPoint x="-1840" y="810" as="sourcePoint"/><mxPoint x="-2450" y="763" as="targetPoint"/><Array as="points"><mxPoint x="-2370" y="810"/></Array></mxGeometry></mxCell><mxCell id="7Trw_0Wt9Phxs4xXXTra-19" value="" style="endArrow=classic;html=1;rounded=0;entryX=1.01;entryY=0.593;entryDx=0;entryDy=0;startArrow=classic;startFill=1;entryPerimeter=0;movable=0;resizable=0;rotatable=0;deletable=0;editable=0;locked=0;connectable=0;" parent="1" target="7vsqYwUWgoAIwfME-lCQ-35" edge="1"><mxGeometry width="50" height="50" relative="1" as="geometry"><mxPoint x="-1840" y="576" as="sourcePoint"/><mxPoint x="-2445" y="595" as="targetPoint"/></mxGeometry></mxCell><mxCell id="7Trw_0Wt9Phxs4xXXTra-20" value="" style="endArrow=classic;html=1;rounded=0;entryX=0.992;entryY=0.635;entryDx=0;entryDy=0;startArrow=classic;startFill=1;entryPerimeter=0;movable=0;resizable=0;rotatable=0;deletable=0;editable=0;locked=0;connectable=0;" parent="1" target="7vsqYwUWgoAIwfME-lCQ-33" edge="1"><mxGeometry width="50" height="50" relative="1" as="geometry"><mxPoint x="-1840" y="397" as="sourcePoint"/><mxPoint x="-2444" y="420" as="targetPoint"/></mxGeometry></mxCell><mxCell id="Dq-lEJqBkdMNffWsxi1W-1" value="" style="endArrow=none;startArrow=classic;html=1;exitX=1;exitY=0.25;exitDx=0;exitDy=0;entryX=0;entryY=0;entryDx=0;entryDy=46.875;entryPerimeter=0;movable=0;resizable=0;rotatable=0;deletable=0;editable=0;locked=0;connectable=0;endFill=0;" parent="1" source="Dq-lEJqBkdMNffWsxi1W-3" edge="1"><mxGeometry width="50" height="50" relative="1" as="geometry"><mxPoint x="-2467" y="1323.75" as="sourcePoint"/><mxPoint x="-2354.0000000000005" y="1226.875" as="targetPoint"/></mxGeometry></mxCell><mxCell id="Dq-lEJqBkdMNffWsxi1W-2" value="" style="endArrow=classic;startArrow=classic;html=1;exitX=1.01;exitY=0.596;exitDx=0;exitDy=0;entryX=-0.011;entryY=0.445;entryDx=0;entryDy=0;entryPerimeter=0;exitPerimeter=0;movable=0;resizable=0;rotatable=0;deletable=0;editable=0;locked=0;connectable=0;" parent="1" target="Dq-lEJqBkdMNffWsxi1W-13" edge="1"><mxGeometry width="50" height="50" relative="1" as="geometry"><mxPoint x="-2460" y="1325.7600000000002" as="sourcePoint"/><mxPoint x="-2355.2000000000007" y="1336.875" as="targetPoint"/></mxGeometry></mxCell><mxCell id="Dq-lEJqBkdMNffWsxi1W-3" value="" style="rounded=1;whiteSpace=wrap;html=1;movable=0;resizable=0;rotatable=0;deletable=0;editable=0;locked=0;connectable=0;" parent="1" vertex="1"><mxGeometry x="-2580" y="1280" width="120" height="60" as="geometry"/></mxCell><mxCell id="Dq-lEJqBkdMNffWsxi1W-4" value="Protective&lt;br style=&quot;font-size: 17px;&quot;&gt;equipment" style="text;html=1;strokeColor=none;fillColor=none;align=center;verticalAlign=middle;whiteSpace=wrap;rounded=0;fontSize=17;movable=0;resizable=0;rotatable=0;deletable=0;editable=0;locked=0;connectable=0;" parent="1" vertex="1"><mxGeometry x="-2547.5" y="1292.5" width="55" height="35" as="geometry"/></mxCell><mxCell id="Dq-lEJqBkdMNffWsxi1W-5" value="" style="rounded=1;whiteSpace=wrap;html=1;movable=0;resizable=0;rotatable=0;deletable=0;editable=0;locked=0;connectable=0;" parent="1" vertex="1"><mxGeometry x="-2580" y="1470" width="120" height="60" as="geometry"/></mxCell><mxCell id="Dq-lEJqBkdMNffWsxi1W-6" value="Start&lt;br style=&quot;font-size: 17px;&quot;&gt;information" style="text;html=1;strokeColor=none;fillColor=none;align=center;verticalAlign=middle;whiteSpace=wrap;rounded=0;fontSize=17;movable=0;resizable=0;rotatable=0;deletable=0;editable=0;locked=0;connectable=0;" parent="1" vertex="1"><mxGeometry x="-2543" y="1480" width="55" height="35" as="geometry"/></mxCell><mxCell id="Dq-lEJqBkdMNffWsxi1W-7" value="" style="shape=cylinder3;whiteSpace=wrap;html=1;boundedLbl=1;backgroundOutline=1;size=15;movable=0;resizable=0;rotatable=0;deletable=0;editable=0;locked=0;connectable=0;" parent="1" vertex="1"><mxGeometry x="-2360" y="1350" width="60" height="72.5" as="geometry"/></mxCell><mxCell id="Dq-lEJqBkdMNffWsxi1W-8" value="" style="endArrow=none;startArrow=classic;html=1;exitX=0.983;exitY=0.958;exitDx=0;exitDy=0;entryX=0;entryY=0.5;entryDx=0;entryDy=0;entryPerimeter=0;exitPerimeter=0;movable=0;resizable=0;rotatable=0;deletable=0;editable=0;locked=0;connectable=0;endFill=0;" parent="1" source="Dq-lEJqBkdMNffWsxi1W-3" target="Dq-lEJqBkdMNffWsxi1W-7" edge="1"><mxGeometry width="50" height="50" relative="1" as="geometry"><mxPoint x="-2461" y="1338" as="sourcePoint"/><mxPoint x="-2344" y="1337" as="targetPoint"/></mxGeometry></mxCell><mxCell id="Dq-lEJqBkdMNffWsxi1W-9" value="&lt;font style=&quot;font-size: 18px;&quot;&gt;Start Information&lt;br&gt;DB&lt;/font&gt;" style="text;html=1;strokeColor=none;fillColor=none;align=center;verticalAlign=middle;whiteSpace=wrap;rounded=0;movable=0;resizable=0;rotatable=0;deletable=0;editable=0;locked=0;connectable=0;" parent="1" vertex="1"><mxGeometry x="-2385" y="1427.5" width="130" height="80" as="geometry"/></mxCell><mxCell id="Dq-lEJqBkdMNffWsxi1W-10" value="" style="endArrow=classic;startArrow=classic;html=1;entryX=1;entryY=0.5;entryDx=0;entryDy=0;entryPerimeter=0;exitX=1;exitY=0.75;exitDx=0;exitDy=0;movable=0;resizable=0;rotatable=0;deletable=0;editable=0;locked=0;connectable=0;" parent="1" source="Dq-lEJqBkdMNffWsxi1W-5" target="Dq-lEJqBkdMNffWsxi1W-17" edge="1"><mxGeometry width="50" height="50" relative="1" as="geometry"><mxPoint x="-2470" y="1540" as="sourcePoint"/><mxPoint x="-2294.0000000000005" y="1316.25" as="targetPoint"/><Array as="points"><mxPoint x="-2250" y="1515"/><mxPoint x="-2250" y="1216"/></Array></mxGeometry></mxCell><mxCell id="Dq-lEJqBkdMNffWsxi1W-11" value="" style="endArrow=classic;startArrow=classic;html=1;exitX=1;exitY=0.25;exitDx=0;exitDy=0;entryX=0;entryY=1;entryDx=0;entryDy=-15;entryPerimeter=0;movable=0;resizable=0;rotatable=0;deletable=0;editable=0;locked=0;connectable=0;" parent="1" source="Dq-lEJqBkdMNffWsxi1W-5" target="Dq-lEJqBkdMNffWsxi1W-7" edge="1"><mxGeometry width="50" height="50" relative="1" as="geometry"><mxPoint x="-2464" y="1360" as="sourcePoint"/><mxPoint x="-2344" y="1416" as="targetPoint"/></mxGeometry></mxCell><mxCell id="Dq-lEJqBkdMNffWsxi1W-12" value="" style="shape=cylinder3;whiteSpace=wrap;html=1;boundedLbl=1;backgroundOutline=1;size=15;movable=0;resizable=0;rotatable=0;deletable=0;editable=0;locked=0;connectable=0;" parent="1" vertex="1"><mxGeometry x="-2058.7" y="1295" width="60" height="72.5" as="geometry"/></mxCell><mxCell id="Dq-lEJqBkdMNffWsxi1W-13" value="" style="shape=cylinder3;whiteSpace=wrap;html=1;boundedLbl=1;backgroundOutline=1;size=15;movable=0;resizable=0;rotatable=0;deletable=0;editable=0;locked=0;connectable=0;" parent="1" vertex="1"><mxGeometry x="-2218.7" y="1295" width="60" height="72.5" as="geometry"/></mxCell><mxCell id="Dq-lEJqBkdMNffWsxi1W-14" value="" style="endArrow=classic;startArrow=classic;html=1;exitX=1;exitY=0;exitDx=0;exitDy=46.875;entryX=0;entryY=0;entryDx=0;entryDy=46.875;entryPerimeter=0;exitPerimeter=0;movable=0;resizable=0;rotatable=0;deletable=0;editable=0;locked=0;connectable=0;" parent="1" edge="1"><mxGeometry width="50" height="50" relative="1" as="geometry"><mxPoint x="-2158.7" y="1330.835" as="sourcePoint"/><mxPoint x="-2058.7" y="1330.835" as="targetPoint"/></mxGeometry></mxCell><mxCell id="Dq-lEJqBkdMNffWsxi1W-15" value="&lt;font style=&quot;font-size: 18px;&quot;&gt;Protective Equipment DB&lt;/font&gt;" style="text;html=1;strokeColor=none;fillColor=none;align=center;verticalAlign=middle;whiteSpace=wrap;rounded=0;movable=0;resizable=0;rotatable=0;deletable=0;editable=0;locked=0;connectable=0;" parent="1" vertex="1"><mxGeometry x="-2250" y="1230" width="130" height="70" as="geometry"/></mxCell><mxCell id="Dq-lEJqBkdMNffWsxi1W-16" value="&lt;font style=&quot;font-size: 18px;&quot;&gt;Low Volt &lt;br&gt;Cables DB&lt;/font&gt;" style="text;html=1;strokeColor=none;fillColor=none;align=center;verticalAlign=middle;whiteSpace=wrap;rounded=0;movable=0;resizable=0;rotatable=0;deletable=0;editable=0;locked=0;connectable=0;" parent="1" vertex="1"><mxGeometry x="-2093.7" y="1230" width="130" height="70" as="geometry"/></mxCell><mxCell id="Dq-lEJqBkdMNffWsxi1W-17" value="" style="shape=cylinder3;whiteSpace=wrap;html=1;boundedLbl=1;backgroundOutline=1;size=15;movable=0;resizable=0;rotatable=0;deletable=0;editable=0;locked=0;connectable=0;" parent="1" vertex="1"><mxGeometry x="-2350" y="1180" width="60" height="72.5" as="geometry"/></mxCell><mxCell id="Dq-lEJqBkdMNffWsxi1W-18" value="&lt;font style=&quot;font-size: 18px;&quot;&gt;Protective Equipment &lt;br&gt;Selection DB&lt;/font&gt;" style="text;html=1;strokeColor=none;fillColor=none;align=center;verticalAlign=middle;whiteSpace=wrap;rounded=0;movable=0;resizable=0;rotatable=0;deletable=0;editable=0;locked=0;connectable=0;" parent="1" vertex="1"><mxGeometry x="-2302.5" y="1160" width="210" height="50" as="geometry"/></mxCell><mxCell id="Dq-lEJqBkdMNffWsxi1W-19" value="" style="endArrow=classic;startArrow=classic;html=1;rounded=0;exitX=0.75;exitY=1;exitDx=0;exitDy=0;movable=0;resizable=0;rotatable=0;deletable=0;editable=0;locked=0;connectable=0;" parent="1" source="Dq-lEJqBkdMNffWsxi1W-5" edge="1"><mxGeometry width="50" height="50" relative="1" as="geometry"><mxPoint x="-2510" y="1480" as="sourcePoint"/><mxPoint x="-2490" y="1570" as="targetPoint"/></mxGeometry></mxCell><mxCell id="Dq-lEJqBkdMNffWsxi1W-20" value="" style="endArrow=classic;startArrow=classic;html=1;rounded=0;entryX=0.681;entryY=0.036;entryDx=0;entryDy=0;entryPerimeter=0;movable=0;resizable=0;rotatable=0;deletable=0;editable=0;locked=0;connectable=0;" parent="1" target="Dq-lEJqBkdMNffWsxi1W-3" edge="1"><mxGeometry width="50" height="50" relative="1" as="geometry"><mxPoint x="-1880" y="1160" as="sourcePoint"/><mxPoint x="-2495" y="1270" as="targetPoint"/><Array as="points"><mxPoint x="-2500" y="1160"/></Array></mxGeometry></mxCell><mxCell id="Dq-lEJqBkdMNffWsxi1W-21" value="" style="endArrow=classic;startArrow=classic;html=1;rounded=0;entryX=0.25;entryY=0;entryDx=0;entryDy=0;movable=0;resizable=0;rotatable=0;deletable=0;editable=0;locked=0;connectable=0;" parent="1" target="Dq-lEJqBkdMNffWsxi1W-3" edge="1"><mxGeometry width="50" height="50" relative="1" as="geometry"><mxPoint x="-1840" y="1140" as="sourcePoint"/><mxPoint x="-2528" y="1262" as="targetPoint"/><Array as="points"><mxPoint x="-2550" y="1140"/></Array></mxGeometry></mxCell><mxCell id="Dq-lEJqBkdMNffWsxi1W-22" value="" style="endArrow=classic;startArrow=classic;html=1;rounded=0;exitX=0.25;exitY=1;exitDx=0;exitDy=0;movable=0;resizable=0;rotatable=0;deletable=0;editable=0;locked=0;connectable=0;" parent="1" source="Dq-lEJqBkdMNffWsxi1W-5" edge="1"><mxGeometry width="50" height="50" relative="1" as="geometry"><mxPoint x="-2480" y="1540" as="sourcePoint"/><mxPoint x="-2550" y="1600" as="targetPoint"/></mxGeometry></mxCell><mxCell id="4aoCJxd_UddJ6NYw5KXh-1" value="&lt;span style=&quot;font-size: 18px;&quot;&gt;High Volt Cables DB&lt;/span&gt;" style="text;html=1;strokeColor=none;fillColor=none;align=center;verticalAlign=middle;whiteSpace=wrap;rounded=0;movable=0;resizable=0;rotatable=0;deletable=0;editable=0;locked=0;connectable=0;" parent="1" vertex="1"><mxGeometry x="-2285" y="826.25" width="130" height="60" as="geometry"/></mxCell></root></mxGraphModel></diagram></mxfile>